<svg data-v-423bf9ae="" xmlns="http://www.w3.org/2000/svg" viewBox="0 0 311 90" class="iconLeft"><!----><!----><!----><g data-v-423bf9ae="" id="c7fd3442-fde6-4095-9914-ea082fac3aa2" fill="#000000" transform="matrix(5.911330271427935,0,0,5.911330271427935,139.49458668052034,-6.458131469130095)"><path d="M5.71 10.05L7.42 3.63L9.69 3.63L6.58 13.64L3.37 13.64L0.27 3.63L3.21 3.63L4.93 10.05L5.25 11.51L5.39 11.51L5.71 10.05ZM14.24 11.63L14.24 11.63Q14.14 11.32 14.12 11.01Q14.10 10.70 14.10 10.27L14.10 10.27L13.92 10.27Q13.47 10.27 13.16 10.33Q12.85 10.40 12.66 10.52Q12.47 10.64 12.38 10.82Q12.30 10.99 12.30 11.22L12.30 11.22Q12.30 11.44 12.37 11.59Q12.44 11.74 12.56 11.83Q12.68 11.93 12.84 11.97Q13.00 12.02 13.17 12.02L13.17 12.02Q13.47 12.02 13.74 11.90Q14.01 11.79 14.24 11.63ZM14.66 12.45L14.66 12.45Q14.40 12.67 14.11 12.91Q13.82 13.15 13.48 13.34Q13.15 13.54 12.76 13.66Q12.38 13.78 11.94 13.78L11.94 13.78Q11.42 13.78 11.03 13.60Q10.64 13.43 10.39 13.14Q10.13 12.85 10.00 12.49Q9.88 12.13 9.88 11.78L9.88 11.78Q9.88 11.27 10.13 10.84Q10.38 10.41 10.88 10.09Q11.39 9.78 12.15 9.60Q12.92 9.42 13.95 9.42L13.95 9.42L14.10 9.42L14.10 8.91Q14.10 8.39 13.78 8.13Q13.45 7.88 12.93 7.88L12.93 7.88Q12.67 7.88 12.40 7.93Q12.13 7.99 11.84 8.10Q11.56 8.20 11.28 8.35Q11.01 8.50 10.75 8.67L10.75 8.67L10.63 8.60L10.19 7.01Q11.09 6.62 11.92 6.44Q12.76 6.26 13.51 6.26L13.51 6.26Q14.29 6.26 14.90 6.46Q15.51 6.65 15.96 7.11L15.96 7.11Q16.41 6.69 16.97 6.47Q17.53 6.26 18.21 6.26L18.21 6.26Q18.90 6.26 19.49 6.48Q20.08 6.69 20.51 7.10Q20.94 7.51 21.18 8.10Q21.43 8.69 21.43 9.44L21.43 9.44Q21.43 9.73 21.40 9.94Q21.38 10.15 21.35 10.27L21.35 10.27L16.84 10.27Q16.84 10.77 16.99 11.11Q17.14 11.45 17.43 11.65Q17.71 11.85 18.12 11.94Q18.53 12.02 19.03 12.02L19.03 12.02Q19.46 12.02 19.98 11.96Q20.51 11.89 21.02 11.73L21.02 11.73L21.02 12.84Q20.61 13.13 20.21 13.31Q19.80 13.49 19.42 13.60Q19.03 13.70 18.66 13.74Q18.29 13.78 17.94 13.78L17.94 13.78Q16.79 13.78 15.97 13.44Q15.15 13.10 14.66 12.45ZM16.84 9.42L18.97 9.42Q18.97 8.63 18.69 8.25Q18.40 7.88 17.93 7.88L17.93 7.88Q17.42 7.88 17.13 8.29Q16.84 8.70 16.84 9.42L16.84 9.42ZM22.93 13.64L22.93 6.40L25.27 6.40L25.59 8.50Q25.70 8.29 25.82 8.08Q25.94 7.88 26.03 7.70Q26.13 7.53 26.21 7.40Q26.28 7.27 26.30 7.23L26.30 7.23Q26.43 7.02 26.58 6.84Q26.74 6.67 26.93 6.54Q27.13 6.41 27.37 6.33Q27.61 6.26 27.92 6.26L27.92 6.26Q28.12 6.26 28.37 6.32Q28.63 6.37 28.85 6.49L28.85 6.49L28.55 8.93Q28.49 8.91 28.37 8.90Q28.26 8.89 28.13 8.89Q28 8.88 27.88 8.88Q27.75 8.87 27.67 8.87L27.67 8.87Q27.36 8.87 27.07 8.91Q26.78 8.96 26.51 9.03Q26.25 9.11 26.03 9.23Q25.81 9.34 25.67 9.47L25.67 9.47L25.67 13.64L22.93 13.64Z"></path></g><defs data-v-423bf9ae=""><linearGradient data-v-423bf9ae="" gradientTransform="rotate(25)" id="cd694593-3045-4447-a017-acc0bfb33a76" x1="0%" y1="0%" x2="100%" y2="0%"><stop data-v-423bf9ae="" offset="0%" style="stop-color: rgb(233, 13, 202); stop-opacity: 1;"></stop><stop data-v-423bf9ae="" offset="100%" style="stop-color: rgb(21, 54, 241); stop-opacity: 1;"></stop></linearGradient></defs><g data-v-423bf9ae="" id="3455ca96-a8f9-45d2-9859-e396e3fc0bc2" transform="matrix(1.2365525403904667,0,0,1.2365525403904667,-0.7906284681388627,-16.2192433453081)" stroke="none" fill="url(#cd694593-3045-4447-a017-acc0bfb33a76)"><path d="M35.871 23.762v-6.745a3.408 3.408 0 10-6.816 0v6.745a21.5 21.5 0 016.816 0zM49.906 32.412l4.779-4.779a3.408 3.408 0 00-4.82-4.82l-4.777 4.778a21.689 21.689 0 014.818 4.821zM15.02 32.412a21.757 21.757 0 014.82-4.82l-4.777-4.778a3.408 3.408 0 00-4.82 4.82l4.777 4.778zM4.445 48.443h6.746a21.519 21.519 0 010-6.816H4.445a3.408 3.408 0 100 6.816zM15.02 57.657l-4.777 4.78a3.405 3.405 0 000 4.819 3.392 3.392 0 002.41.999 3.4 3.4 0 002.41-.999l4.777-4.778a21.72 21.72 0 01-4.82-4.821zM17.736 45.035c0 1.175.15 2.312.412 3.408.367 1.543.975 2.99 1.785 4.302a14.776 14.776 0 004.818 4.82c.268.164.531.328.809.477a21.4 21.4 0 019.818-6.77A30.402 30.402 0 0145.48 38.149a15.81 15.81 0 00-.486-.826 14.767 14.767 0 00-4.818-4.82 14.612 14.612 0 00-4.305-1.785c-1.096-.261-2.232-.413-3.408-.413s-2.312.152-3.408.413a14.634 14.634 0 00-4.303 1.785 14.767 14.767 0 00-4.818 4.82 14.595 14.595 0 00-1.785 4.302 14.644 14.644 0 00-.413 3.41zM83.811 49.99c-4.336-6.848-11.969-11.077-20.068-11.077-3.58 0-7.002.819-10.084 2.274a23.986 23.986 0 00-3.182 1.803 23.894 23.894 0 00-3.318 2.719c-3.111 3.041-5.418 6.93-6.488 11.359a14.666 14.666 0 00-6.975 2.632 14.643 14.643 0 00-5.143 6.518 14.734 14.734 0 00-1.043 5.464c0 8.111 6.6 14.71 14.711 14.71h38.4c.484 0 .963-.025 1.438-.062 9.479-.74 16.904-8.77 16.904-18.28 0-8.875-6.471-16.529-15.152-18.06zm-3.19 28.66h-38.4a6.976 6.976 0 01-6.969-6.969 6.947 6.947 0 013.502-6.041 6.946 6.946 0 012.191-.804 6.933 6.933 0 011.275-.124c1.281 0 2.543.361 3.646 1.045.213.131.451.195.688.195h.02a1.307 1.307 0 001.258-1.661 15.71 15.71 0 01-.088-1.64c0-.907.096-1.813.25-2.708.033-.19.051-.384.09-.572.732-3.508 2.617-6.547 5.193-8.779 2.84-2.46 6.518-3.939 10.465-3.939 4.676 0 9.109 2.05 12.164 5.625a16.029 16.029 0 012.672 4.395c.197.493.672.818 1.199.818.033 0 .066-.002.1-.004l.133-.008c.229-.017.457-.025.686-.025 1.453 0 2.908.322 4.27.938 3.801 1.717 6.256 5.508 6.256 9.658-.001 5.845-4.757 10.6-10.601 10.6z"></path></g><!----></svg>