<svg data-v-423bf9ae="" xmlns="http://www.w3.org/2000/svg" viewBox="0 0 130 90" class="iconLeft">
  <defs data-v-423bf9ae="">
    <linearGradient data-v-423bf9ae="" gradientTransform="rotate(25)" id="cd694593-3045-4447-a017-acc0bfb33a76" x1="0%"
      y1="0%" x2="100%" y2="0%">
      <stop data-v-423bf9ae="" offset="0%" style="stop-color: rgb(233, 13, 202); stop-opacity: 1;"></stop>
      <stop data-v-423bf9ae="" offset="100%" style="stop-color: rgb(21, 54, 241); stop-opacity: 1;"></stop>
    </linearGradient>
  </defs>
  <g data-v-423bf9ae="" id="3455ca96-a8f9-45d2-9859-e396e3fc0bc2"
    transform="matrix(1.2365525403904667,0,0,1.2365525403904667,-0.7906284681388627,-16.2192433453081)" stroke="none"
    fill="url(#cd694593-3045-4447-a017-acc0bfb33a76)">
    <path
      d="M35.871 23.762v-6.745a3.408 3.408 0 10-6.816 0v6.745a21.5 21.5 0 016.816 0zM49.906 32.412l4.779-4.779a3.408 3.408 0 00-4.82-4.82l-4.777 4.778a21.689 21.689 0 014.818 4.821zM15.02 32.412a21.757 21.757 0 014.82-4.82l-4.777-4.778a3.408 3.408 0 00-4.82 4.82l4.777 4.778zM4.445 48.443h6.746a21.519 21.519 0 010-6.816H4.445a3.408 3.408 0 100 6.816zM15.02 57.657l-4.777 4.78a3.405 3.405 0 000 4.819 3.392 3.392 0 002.41.999 3.4 3.4 0 002.41-.999l4.777-4.778a21.72 21.72 0 01-4.82-4.821zM17.736 45.035c0 1.175.15 2.312.412 3.408.367 1.543.975 2.99 1.785 4.302a14.776 14.776 0 004.818 4.82c.268.164.531.328.809.477a21.4 21.4 0 019.818-6.77A30.402 30.402 0 0145.48 38.149a15.81 15.81 0 00-.486-.826 14.767 14.767 0 00-4.818-4.82 14.612 14.612 0 00-4.305-1.785c-1.096-.261-2.232-.413-3.408-.413s-2.312.152-3.408.413a14.634 14.634 0 00-4.303 1.785 14.767 14.767 0 00-4.818 4.82 14.595 14.595 0 00-1.785 4.302 14.644 14.644 0 00-.413 3.41zM83.811 49.99c-4.336-6.848-11.969-11.077-20.068-11.077-3.58 0-7.002.819-10.084 2.274a23.986 23.986 0 00-3.182 1.803 23.894 23.894 0 00-3.318 2.719c-3.111 3.041-5.418 6.93-6.488 11.359a14.666 14.666 0 00-6.975 2.632 14.643 14.643 0 00-5.143 6.518 14.734 14.734 0 00-1.043 5.464c0 8.111 6.6 14.71 14.711 14.71h38.4c.484 0 .963-.025 1.438-.062 9.479-.74 16.904-8.77 16.904-18.28 0-8.875-6.471-16.529-15.152-18.06zm-3.19 28.66h-38.4a6.976 6.976 0 01-6.969-6.969 6.947 6.947 0 013.502-6.041 6.946 6.946 0 012.191-.804 6.933 6.933 0 011.275-.124c1.281 0 2.543.361 3.646 1.045.213.131.451.195.688.195h.02a1.307 1.307 0 001.258-1.661 15.71 15.71 0 01-.088-1.64c0-.907.096-1.813.25-2.708.033-.19.051-.384.09-.572.732-3.508 2.617-6.547 5.193-8.779 2.84-2.46 6.518-3.939 10.465-3.939 4.676 0 9.109 2.05 12.164 5.625a16.029 16.029 0 012.672 4.395c.197.493.672.818 1.199.818.033 0 .066-.002.1-.004l.133-.008c.229-.017.457-.025.686-.025 1.453 0 2.908.322 4.27.938 3.801 1.717 6.256 5.508 6.256 9.658-.001 5.845-4.757 10.6-10.601 10.6z">
    </path>
  </g>
  <!---->
</svg>