<svg data-v-423bf9ae="" xmlns="http://www.w3.org/2000/svg" viewBox="0 0 90 90" class="iconLeft">
  <!---->
  <g data-v-423bf9ae="" id="4a7f1633-ff88-4b8b-89ad-f599d9ec883d" transform="matrix(1,0,0,1,-5,-5)" stroke="none"
    fill="white">
    <path
      d="M50 5C25.15 5 5 25.15 5 50s20.15 45 45 45 45-20.15 45-45S74.85 5 50 5zm0 85c-22.09 0-40-17.91-40-40s17.91-40 40-40 40 17.91 40 40-17.91 40-40 40z">
    </path>
    <path
      d="M52.5 15v10a2.5 2.5 0 0 1-5 0V15a2.5 2.5 0 0 1 5 0zM52.5 79.5v5a2.5 2.5 0 0 1-5 0v-5a2.5 2.5 0 0 1 5 0zM84.5 52.5h-5a2.5 2.5 0 0 1 0-5h5a2.5 2.5 0 0 1 0 5zM19.5 52.5h-5a2.5 2.5 0 0 1 0-5h5a2.5 2.5 0 0 1 0 5z">
    </path>
    <circle cx="75.481" cy="35.001" r="2.5"></circle>
    <circle cx="23.52" cy="65.001" r="2.5"></circle>
    <circle cx="64.5" cy="24.02" r="2.5"></circle>
    <circle cx="34.5" cy="75.981" r="2.5"></circle>
    <circle cx="34.5" cy="24.021" r="2.5"></circle>
    <circle cx="64.5" cy="75.981" r="2.5"></circle>
    <circle cx="23.52" cy="35.001" r="2.5"></circle>
    <circle cx="75.48" cy="65" r="2.5"></circle>
    <path
      d="M60.31 49.91L50.7 52.4c-.966.283-2.301-.09-2.8-1.04L37.03 34.57c-.75-1.16-.41-2.71.74-3.46 1.16-.75 2.71-.42 3.46.74l9.89 15.28 7.93-2.06c1.34-.34 2.71.46 3.05 1.79.35 1.34-.46 2.71-1.79 3.05 0 0 1.33-.34 0 0z">
    </path>
  </g>
  <!---->
</svg>