<svg data-v-423bf9ae="" xmlns="http://www.w3.org/2000/svg" viewBox="0 0 168.94581870641167 60" class="font"><!----><!----><!----><g data-v-423bf9ae="" id="8b50d79d-b385-485d-8f63-cdf677c1effe" fill="black" transform="matrix(5.911330271427935,0,0,5.911330271427935,-1.5960581559054248,-21.458129561781462)"><path d="M5.71 10.05L7.42 3.63L9.69 3.63L6.58 13.64L3.37 13.64L0.27 3.63L3.21 3.63L4.93 10.05L5.25 11.51L5.39 11.51L5.71 10.05ZM14.24 11.63L14.24 11.63Q14.14 11.32 14.12 11.01Q14.10 10.70 14.10 10.27L14.10 10.27L13.92 10.27Q13.47 10.27 13.16 10.33Q12.85 10.40 12.66 10.52Q12.47 10.64 12.38 10.82Q12.30 10.99 12.30 11.22L12.30 11.22Q12.30 11.44 12.37 11.59Q12.44 11.74 12.56 11.83Q12.68 11.93 12.84 11.97Q13.00 12.02 13.17 12.02L13.17 12.02Q13.47 12.02 13.74 11.90Q14.01 11.79 14.24 11.63ZM14.66 12.45L14.66 12.45Q14.40 12.67 14.11 12.91Q13.82 13.15 13.48 13.34Q13.15 13.54 12.76 13.66Q12.38 13.78 11.94 13.78L11.94 13.78Q11.42 13.78 11.03 13.60Q10.64 13.43 10.39 13.14Q10.13 12.85 10.00 12.49Q9.88 12.13 9.88 11.78L9.88 11.78Q9.88 11.27 10.13 10.84Q10.38 10.41 10.88 10.09Q11.39 9.78 12.15 9.60Q12.92 9.42 13.95 9.42L13.95 9.42L14.10 9.42L14.10 8.91Q14.10 8.39 13.78 8.13Q13.45 7.88 12.93 7.88L12.93 7.88Q12.67 7.88 12.40 7.93Q12.13 7.99 11.84 8.10Q11.56 8.20 11.28 8.35Q11.01 8.50 10.75 8.67L10.75 8.67L10.63 8.60L10.19 7.01Q11.09 6.62 11.92 6.44Q12.76 6.26 13.51 6.26L13.51 6.26Q14.29 6.26 14.90 6.46Q15.51 6.65 15.96 7.11L15.96 7.11Q16.41 6.69 16.97 6.47Q17.53 6.26 18.21 6.26L18.21 6.26Q18.90 6.26 19.49 6.48Q20.08 6.69 20.51 7.10Q20.94 7.51 21.18 8.10Q21.43 8.69 21.43 9.44L21.43 9.44Q21.43 9.73 21.40 9.94Q21.38 10.15 21.35 10.27L21.35 10.27L16.84 10.27Q16.84 10.77 16.99 11.11Q17.14 11.45 17.43 11.65Q17.71 11.85 18.12 11.94Q18.53 12.02 19.03 12.02L19.03 12.02Q19.46 12.02 19.98 11.96Q20.51 11.89 21.02 11.73L21.02 11.73L21.02 12.84Q20.61 13.13 20.21 13.31Q19.80 13.49 19.42 13.60Q19.03 13.70 18.66 13.74Q18.29 13.78 17.94 13.78L17.94 13.78Q16.79 13.78 15.97 13.44Q15.15 13.10 14.66 12.45ZM16.84 9.42L18.97 9.42Q18.97 8.63 18.69 8.25Q18.40 7.88 17.93 7.88L17.93 7.88Q17.42 7.88 17.13 8.29Q16.84 8.70 16.84 9.42L16.84 9.42ZM22.93 13.64L22.93 6.40L25.27 6.40L25.59 8.50Q25.70 8.29 25.82 8.08Q25.94 7.88 26.03 7.70Q26.13 7.53 26.21 7.40Q26.28 7.27 26.30 7.23L26.30 7.23Q26.43 7.02 26.58 6.84Q26.74 6.67 26.93 6.54Q27.13 6.41 27.37 6.33Q27.61 6.26 27.92 6.26L27.92 6.26Q28.12 6.26 28.37 6.32Q28.63 6.37 28.85 6.49L28.85 6.49L28.55 8.93Q28.49 8.91 28.37 8.90Q28.26 8.89 28.13 8.89Q28 8.88 27.88 8.88Q27.75 8.87 27.67 8.87L27.67 8.87Q27.36 8.87 27.07 8.91Q26.78 8.96 26.51 9.03Q26.25 9.11 26.03 9.23Q25.81 9.34 25.67 9.47L25.67 9.47L25.67 13.64L22.93 13.64Z"></path></g><!----><!----></svg>