<svg data-v-423bf9ae="" xmlns="http://www.w3.org/2000/svg" viewBox="90 0 298 90" class="iconLeft">
  <g data-v-423bf9ae="" id="9ce284c0-39e7-49f5-b967-e8b65ed32d9f" fill="white"
    transform="matrix(5.459508757923784,0,0,5.459508757923784,108.85350987601434,-0.2320292263436201)">
    <path
      d="M5.80 3.37L5.80 3.37L5.80 3.37Q6.34 3.37 6.60 3.47L6.60 3.47L6.60 3.47Q6.86 3.56 6.97 3.77L6.97 3.77L6.97 3.77Q7.13 4.09 7.13 4.63L7.13 4.63L7.13 10.05L7.13 10.05Q7.13 11.52 6.06 12.65L6.06 12.65L6.06 12.65Q5.00 13.78 3.35 13.78L3.35 13.78L3.35 13.78Q2.42 13.78 1.71 13.37L1.71 13.37L1.71 13.37Q1.06 13.02 0.81 12.74L0.81 12.74L0.70 12.63L0.70 12.63Q0.21 12.11 0.21 11.74L0.21 11.74L0.21 11.74Q0.21 11.37 0.70 10.86L0.70 10.86L0.70 10.86Q1.19 10.36 1.57 10.36L1.57 10.36L1.57 10.36Q1.95 10.36 2.41 10.82L2.41 10.82L2.41 10.82Q2.87 11.28 3.41 11.28L3.41 11.28L3.41 11.28Q3.95 11.28 4.30 10.92L4.30 10.92L4.30 10.92Q4.65 10.56 4.65 9.95L4.65 9.95L4.65 4.72L4.65 4.72Q4.65 3.88 4.93 3.64L4.93 3.64L4.93 3.64Q5.25 3.37 5.80 3.37ZM8.25 12.40L8.25 7.49L8.25 7.49Q8.25 7.17 8.27 7.01L8.27 7.01L8.27 7.01Q8.29 6.85 8.39 6.64L8.39 6.64L8.39 6.64Q8.58 6.27 9.48 6.27L9.48 6.27L9.48 6.27Q10.15 6.27 10.43 6.51L10.43 6.51L10.43 6.51Q10.67 6.71 10.68 7.11L10.68 7.11L10.68 7.11Q10.70 7.25 10.70 7.52L10.70 7.52L10.70 12.42L10.70 12.42Q10.70 12.74 10.68 12.90L10.68 12.90L10.68 12.90Q10.65 13.06 10.54 13.27L10.54 13.27L10.54 13.27Q10.36 13.64 9.46 13.64L9.46 13.64L9.46 13.64Q8.58 13.64 8.39 13.26L8.39 13.26L8.39 13.26Q8.29 13.05 8.27 12.89L8.27 12.89L8.27 12.89Q8.25 12.74 8.25 12.40L8.25 12.40ZM10.55 4.89L10.55 4.89L10.55 4.89Q10.44 5.10 10.18 5.18L10.18 5.18L10.18 5.18Q9.91 5.26 9.47 5.26L9.47 5.26L9.47 5.26Q9.03 5.26 8.76 5.18L8.76 5.18L8.76 5.18Q8.50 5.10 8.39 4.89L8.39 4.89L8.39 4.89Q8.29 4.68 8.27 4.52L8.27 4.52L8.27 4.52Q8.25 4.35 8.25 4.03L8.25 4.03L8.25 4.03Q8.25 3.71 8.27 3.55L8.27 3.55L8.27 3.55Q8.29 3.39 8.39 3.19L8.39 3.19L8.39 3.19Q8.58 2.81 9.48 2.81L9.48 2.81L9.48 2.81Q10.36 2.81 10.54 3.19L10.54 3.19L10.54 3.19Q10.65 3.40 10.68 3.56L10.68 3.56L10.68 3.56Q10.70 3.72 10.70 4.05L10.70 4.05L10.70 4.05Q10.70 4.37 10.68 4.53L10.68 4.53L10.68 4.53Q10.65 4.69 10.55 4.89ZM17.54 8.76L16.16 9.94L18.02 11.48L18.02 11.48Q18.37 11.77 18.46 11.93L18.46 11.93L18.46 11.93Q18.55 12.08 18.55 12.22L18.55 12.22L18.55 12.22Q18.55 12.56 18.12 13.13L18.12 13.13L18.12 13.13Q17.64 13.72 17.28 13.72L17.28 13.72L17.28 13.72Q16.97 13.72 16.42 13.31L16.42 13.31L16.28 13.22L16.28 13.22Q15.96 12.95 15.29 12.29L15.29 12.29L15.29 12.29Q14.62 11.62 14.27 11.34L14.27 11.34L14.27 12.42L14.27 12.42Q14.27 12.74 14.25 12.90L14.25 12.90L14.25 12.90Q14.22 13.06 14.11 13.27L14.11 13.27L14.11 13.27Q13.93 13.64 13.03 13.64L13.03 13.64L13.03 13.64Q12.15 13.64 11.96 13.26L11.96 13.26L11.96 13.26Q11.86 13.05 11.84 12.89L11.84 12.89L11.84 12.89Q11.82 12.73 11.82 12.40L11.82 12.40L11.82 4.02L11.82 4.02Q11.82 3.70 11.84 3.54L11.84 3.54L11.84 3.54Q11.86 3.37 11.96 3.16L11.96 3.16L11.96 3.16Q12.15 2.79 13.05 2.79L13.05 2.79L13.05 2.79Q13.72 2.79 14 3.02L14 3.02L14 3.02Q14.24 3.22 14.25 3.64L14.25 3.64L14.25 3.64Q14.27 3.77 14.27 4.03L14.27 4.03L14.27 8.47L14.27 8.47Q14.52 8.26 15.03 7.76L15.03 7.76L15.03 7.76Q15.54 7.25 15.79 7.04L15.79 7.04L15.96 6.93L15.96 6.93Q16.45 6.55 16.80 6.55L16.80 6.55L16.80 6.55Q17.15 6.55 17.61 7.12L17.61 7.12L17.61 7.12Q18.06 7.69 18.06 8.01L18.06 8.01L18.06 8.01Q18.06 8.33 17.54 8.76L17.54 8.76ZM23.69 7.04L23.69 7.04L23.69 7.04Q23.77 6.26 24.79 6.26L24.79 6.26L24.79 6.26Q25.34 6.26 25.61 6.34L25.61 6.34L25.61 6.34Q25.87 6.43 25.98 6.64L25.98 6.64L25.98 6.64Q26.08 6.85 26.10 7.01L26.10 7.01L26.10 7.01Q26.12 7.17 26.12 7.49L26.12 7.49L26.12 12.39L26.12 12.39Q26.12 12.71 26.10 12.87L26.10 12.87L26.10 12.87Q26.08 13.03 25.98 13.24L25.98 13.24L25.98 13.24Q25.79 13.61 25.02 13.61L25.02 13.61L25.02 13.61Q24.26 13.61 24.00 13.42L24.00 13.42L24.00 13.42Q23.74 13.23 23.70 12.87L23.70 12.87L23.70 12.87Q23.18 13.61 21.97 13.61L21.97 13.61L21.97 13.61Q20.76 13.61 19.73 12.50L19.73 12.50L19.73 12.50Q18.69 11.40 18.69 9.93L18.69 9.93L18.69 9.93Q18.69 8.47 19.73 7.37L19.73 7.37L19.73 7.37Q20.78 6.27 22.02 6.27L22.02 6.27L22.02 6.27Q22.50 6.27 22.89 6.44L22.89 6.44L22.89 6.44Q23.28 6.61 23.44 6.76L23.44 6.76L23.44 6.76Q23.59 6.90 23.69 7.04ZM21.14 9.95L21.14 9.95L21.14 9.95Q21.14 10.42 21.50 10.79L21.50 10.79L21.50 10.79Q21.87 11.16 22.39 11.16L22.39 11.16L22.39 11.16Q22.90 11.16 23.25 10.78L23.25 10.78L23.25 10.78Q23.59 10.40 23.59 9.95L23.59 9.95L23.59 9.95Q23.59 9.49 23.26 9.10L23.26 9.10L23.26 9.10Q22.93 8.71 22.38 8.71L22.38 8.71L22.38 8.71Q21.83 8.71 21.48 9.10L21.48 9.10L21.48 9.10Q21.14 9.49 21.14 9.95ZM31.35 6.26L31.35 6.26L31.35 6.26Q32.75 6.26 33.68 7.33L33.68 7.33L33.68 7.33Q34.61 8.40 34.61 9.94L34.61 9.94L34.61 12.40L34.61 12.40Q34.61 12.73 34.59 12.89L34.59 12.89L34.59 12.89Q34.57 13.05 34.47 13.24L34.47 13.24L34.47 13.24Q34.27 13.62 33.38 13.62L33.38 13.62L33.38 13.62Q32.38 13.62 32.23 13.10L32.23 13.10L32.23 13.10Q32.14 12.87 32.14 12.39L32.14 12.39L32.14 9.93L32.14 9.93Q32.14 9.35 31.81 9.03L31.81 9.03L31.81 9.03Q31.49 8.71 30.93 8.71L30.93 8.71L30.93 8.71Q30.38 8.71 30.04 9.04L30.04 9.04L30.04 9.04Q29.69 9.38 29.69 9.93L29.69 9.93L29.69 12.40L29.69 12.40Q29.69 12.73 29.67 12.89L29.67 12.89L29.67 12.89Q29.65 13.05 29.54 13.24L29.54 13.24L29.54 13.24Q29.36 13.62 28.46 13.62L28.46 13.62L28.46 13.62Q27.58 13.62 27.38 13.24L27.38 13.24L27.38 13.24Q27.29 13.03 27.26 12.87L27.26 12.87L27.26 12.87Q27.24 12.71 27.24 12.39L27.24 12.39L27.24 7.43L27.24 7.43Q27.24 7.13 27.26 6.97L27.26 6.97L27.26 6.97Q27.29 6.80 27.40 6.61L27.40 6.61L27.40 6.61Q27.59 6.26 28.48 6.26L28.48 6.26L28.48 6.26Q29.33 6.26 29.53 6.58L29.53 6.58L29.53 6.58Q29.67 6.82 29.67 7.15L29.67 7.15L29.67 7.15Q29.72 7.06 29.92 6.87L29.92 6.87L29.92 6.87Q30.11 6.69 30.30 6.58L30.30 6.58L30.30 6.58Q30.77 6.26 31.35 6.26Z">
    </path>
  </g>
</svg>